PathFileType	4	(x/y/z)	S04_M20_T39.trc
DataRate	CameraRate	NumFrames	NumMarkers	Units	OrigDataRate	OrigDataStartFrame	OrigNumFrames
240	240	6	51	mm	240	195	519
Frame#	Time	Sternum			R.Acromium			L.Acromium			Top.Head			R.ASIS			L.ASIS			R.PSIS			L.PSIS			R.Great.Tro			L.Great.Tro			R.Iliac.Crest			L.Iliac.Crest			V.Sacral			R.Thigh.Upper.Post			R.Thigh.Lower.Ant			R.Thigh.Lower.Post			R.Thigh.Upper.Ant			R.Knee.Lat			R.Knee.Med			R.Shank.Upper.Post			R.Shank.Lower.Ant			R.Shank.Lower.Post			R.Shank.Upper.Ant			R.Ankle.Lat			R.Ankle.Med			R.Heel.Upper			R.Heel.Med			R.Heel.Lat			R.Toe.Lat			R.Toe.Med			R.Toe.Tip			L.Thigh.Upper.Post			L.Thigh.Lower.Ant			L.Thigh.Lower.Post			L.Thigh.Upper.Ant			L.Knee.Lat			L.Knee.Med			L.Shank.Upper.Post			L.Shank.Lower.Ant			L.Shank.Lower.Post			L.Shank.Upper.Ant			L.Ankle.Lat			L.Ankle.Med			L.Heel.Upper			L.Heel.Med			L.Heel.Lat			L.Toe.Lat			L.Toe.Med			L.Toe.Tip			Cervical.Spine			Back			
		X1	Y1	Z1	X2	Y2	Z2	X3	Y3	Z3	X4	Y4	Z4	X5	Y5	Z5	X6	Y6	Z6	X7	Y7	Z7	X8	Y8	Z8	X9	Y9	Z9	X10	Y10	Z10	X11	Y11	Z11	X12	Y12	Z12	X13	Y13	Z13	X14	Y14	Z14	X15	Y15	Z15	X16	Y16	Z16	X17	Y17	Z17	X18	Y18	Z18	X19	Y19	Z19	X20	Y20	Z20	X21	Y21	Z21	X22	Y22	Z22	X23	Y23	Z23	X24	Y24	Z24	X25	Y25	Z25	X26	Y26	Z26	X27	Y27	Z27	X28	Y28	Z28	X29	Y29	Z29	X30	Y30	Z30	X31	Y31	Z31	X32	Y32	Z32	X33	Y33	Z33	X34	Y34	Z34	X35	Y35	Z35	X36	Y36	Z36	X37	Y37	Z37	X38	Y38	Z38	X39	Y39	Z39	X40	Y40	Z40	X41	Y41	Z41	X42	Y42	Z42	X43	Y43	Z43	X44	Y44	Z44	X45	Y45	Z45	X46	Y46	Z46	X47	Y47	Z47	X48	Y48	Z48	X49	Y49	Z49	X50	Y50	Z50	X51	Y51	Z51	

195	0.80833	285.77	1225.4	248.76	170.9	1448.2	443.27	131.38	1440.6	93.649	185.54	1781.2	262.96	294.12	951.53	358.68	223.14	951.24	114.66	63.041	988.92	325.93	49.362	993.46	246.85	237.38	883.1	452.32	78.135	887.03	98.392	214.37	1032.6	432.48	126.27	1042.4	99.345	33.961	950.41	292.03	325.27	638.5	429.73	419.33	596.39	375.79	360.41	557.1	407.63	384.63	698.63	402.59	410.28	510.77	392.28	361.18	488.17	267.41	413.53	272.29	395.93	494.28	220.27	342.31	434.29	206.46	379.7	472.88	285.97	366.99	478.92	101.54	356.1	485.05	121.84	264.48	426.74	60.2	300.09	441.59	32.284	270.34	439.84	30.345	334.71	603.41	80.379	372.77	626.75	96.897	256.43	678.76	141.23	300.52	-11.589	683	115.34	27.264	564.48	94.442	-33.007	596.08	121.01	43.273	653.42	85.321	-37.341	494.19	111.22	-11.352	467.22	233.33	-211.34	397.85	130.62	-208.75	286.8	128.95	-252.56	332.68	141.02	-167.56	350.86	118.68	-314.69	170.14	159.15	-300.89	184.81	249.49	-391.32	198.47	207.38	-400.07	179.52	244.2	-406.78	172.13	182.57	-275.61	48.896	150.49	-242.19	46.935	265.37	-195.2	38.738	219.89	102.63	1498.4	278.35	21.964	1240.2	260.44
196	0.8125	292.62	1225.8	249.42	176.79	1448.2	443.92	137.88	1440.7	94.205	191.61	1781.4	263.66	300.87	952	359.36	230.37	950.8	115.18	69.754	989.26	325.98	56.308	993.46	246.81	244.04	883.84	452.87	85.389	886.46	98.781	220.98	1032.8	432.9	133.94	1042.3	99.518	40.762	950.6	292.14	332.23	639.2	429.94	426.17	597.05	375.81	367.29	557.78	407.75	391.6	699.3	402.75	417.07	511.23	392.11	367.39	488.86	267.64	418.17	272.69	396.3	497.93	219.66	342.17	438.08	206.61	380.07	477.43	285.66	366.81	481.04	101.16	356.32	487.19	121.35	264.64	427.96	61.02	300.41	442.15	32.835	270.51	440.41	30.741	334.9	605.14	77.835	372.51	628.44	94.103	256.17	681.45	137.45	300.17	-4.0121	682.1	115.3	35.121	563.78	93.744	-25.131	595.1	120.69	50.873	652.8	85.025	-29.411	493.47	110.34	-3.0371	465.87	232.21	-204.18	399.13	130.07	-202.99	288.08	128.13	-246.15	334.47	140.47	-161.02	351.62	117.92	-310.25	172.52	158.34	-295.87	187	248.62	-385.73	202.97	206.61	-394.97	184.46	243.51	-401.96	176.99	181.95	-274.49	49.977	150.35	-240.98	47.752	265.15	-194.66	38.415	219.83	108.76	1498.3	278.88	28.772	1240	260.61
197	0.81667	299.43	1226.2	250.08	182.64	1448.2	444.56	144.4	1440.9	94.745	197.66	1781.6	264.36	307.57	952.53	360.06	237.57	950.41	115.74	76.4	989.64	326.01	63.2	993.51	246.75	250.61	884.65	453.43	92.618	885.9	99.161	227.51	1033	433.32	141.58	1042.2	99.692	47.505	950.84	292.23	339.16	639.95	430.17	432.97	597.77	375.83	374.14	558.52	407.9	398.52	700.03	402.91	423.8	511.73	391.96	373.65	489.65	267.86	422.72	273.14	396.69	501.49	219.11	342.06	441.76	206.81	380.48	481.89	285.4	366.67	483.05	100.84	356.56	489.24	120.95	264.83	429.12	61.82	300.74	442.69	33.417	270.7	440.96	31.138	335.11	606.77	75.395	372.29	630.03	91.453	255.95	683.99	133.8	299.87	3.6357	681.16	115.24	43.112	563.06	93.032	-17.143	594.06	120.33	58.562	652.16	84.718	-21.301	492.7	109.43	5.4431	464.48	231.07	-196.8	400.39	129.48	-197.04	289.37	127.3	-239.52	336.26	139.91	-154.28	352.36	117.13	-305.61	174.99	157.52	-290.67	189.24	247.76	-379.87	207.56	205.8	-389.62	189.5	242.79	-396.88	181.97	181.3	-273.26	51.193	150.19	-239.65	48.697	264.91	-194.04	38.064	219.74	114.88	1498.4	279.39	35.554	1239.8	260.75
198	0.82083	306.21	1226.6	250.74	188.46	1448.3	445.18	150.94	1441.2	95.267	203.69	1781.9	265.05	314.21	953.12	360.77	244.73	950.08	116.32	82.979	990.08	326.02	70.036	993.61	246.68	257.09	885.5	453.98	99.813	885.36	99.537	233.95	1033.4	433.73	149.16	1042.2	99.872	54.189	951.13	292.31	346.03	640.74	430.41	439.71	598.54	375.86	380.93	559.31	408.06	405.37	700.8	403.07	430.47	512.25	391.83	379.93	490.5	268.06	427.17	273.62	397.1	504.94	218.61	341.98	445.35	207.05	380.89	486.25	285.17	366.56	484.97	100.56	356.83	491.19	120.61	265.05	430.22	62.592	301.09	443.21	34.017	270.89	441.48	31.532	335.32	608.29	73.064	372.12	631.51	88.942	255.75	686.38	130.29	299.61	11.351	680.17	115.15	51.235	562.32	92.312	-9.0442	592.97	119.95	66.339	651.51	84.402	-13.011	491.89	108.51	14.085	463.07	229.92	-189.2	401.63	128.86	-190.89	290.66	126.46	-232.68	338.05	139.32	-147.33	353.08	116.33	-300.77	177.53	156.7	-285.29	191.55	246.9	-373.76	212.24	204.96	-384.01	194.63	242.04	-391.54	187.06	180.61	-271.9	52.553	150.01	-238.18	49.775	264.64	-193.33	37.689	219.62	120.99	1498.5	279.88	42.301	1239.7	260.86
199	0.825	312.93	1227.2	251.41	194.25	1448.5	445.79	157.49	1441.5	95.77	209.69	1782.2	265.73	320.78	953.76	361.5	251.85	949.81	116.93	89.492	990.56	326.04	76.812	993.75	246.59	263.51	886.4	454.53	106.97	884.85	99.909	240.32	1033.8	434.15	156.68	1042.2	100.06	60.813	951.46	292.38	352.82	641.55	430.67	446.36	599.32	375.89	387.65	560.11	408.22	412.15	701.59	403.25	437.03	512.77	391.72	386.21	491.41	268.25	431.51	274.13	397.52	508.28	218.15	341.93	448.82	207.33	381.31	490.5	284.97	366.47	486.79	100.34	357.11	493.05	120.33	265.3	431.25	63.332	301.45	443.7	34.624	271.08	441.98	31.92	335.52	609.71	70.843	371.96	632.88	86.559	255.58	688.62	126.92	299.37	19.132	679.14	115.03	59.486	561.56	91.591	-0.83863	591.83	119.54	74.201	650.85	84.081	-4.5389	491.03	107.57	22.884	461.63	228.78	-181.37	402.86	128.22	-184.54	291.95	125.63	-225.61	339.84	138.73	-140.17	353.79	115.52	-295.73	180.16	155.86	-279.72	193.92	246.05	-367.38	216.98	204.09	-378.13	199.84	241.27	-385.93	192.25	179.9	-270.39	54.067	149.81	-236.55	50.992	264.36	-192.51	37.294	219.44	127.09	1498.7	280.35	49.007	1239.7	260.94
200	0.82917	319.61	1227.7	252.08	200.01	1448.8	446.37	164.06	1441.9	96.252	215.67	1782.6	266.4	327.29	954.45	362.24	258.91	949.6	117.57	95.94	991.09	326.06	83.526	993.93	246.51	269.85	887.32	455.08	114.07	884.37	100.28	246.6	1034.3	434.55	164.1	1042.3	100.27	67.377	951.84	292.46	359.52	642.36	430.93	452.91	600.1	375.92	394.27	560.9	408.39	418.83	702.37	403.43	443.48	513.28	391.62	392.45	492.34	268.4	435.74	274.65	397.92	511.51	217.73	341.88	452.19	207.63	381.72	494.63	284.79	366.4	488.51	100.15	357.38	494.81	120.1	265.55	432.23	64.036	301.8	444.17	35.227	271.28	442.47	32.299	335.73	611.03	68.732	371.83	634.15	84.296	255.42	690.7	123.68	299.13	26.975	678.08	114.89	67.864	560.79	90.873	7.4711	590.65	119.11	82.145	650.17	83.758	4.1133	490.14	106.62	31.837	460.17	227.64	-173.32	404.07	127.57	-177.98	293.26	124.8	-218.33	341.64	138.13	-132.8	354.49	114.7	-290.48	182.86	155.03	-273.96	196.35	245.21	-360.74	221.79	203.21	-371.98	205.13	240.47	-380.06	197.54	179.16	-268.73	55.74	149.58	-234.74	52.349	264.04	-191.57	36.884	219.22	133.16	1498.9	280.8	55.665	1239.8	261
